# xmcd
# Track frame offsets:
# 150
# 11470
# 23858
# 38268
# 55543
# 69805
# 85035
# 98933
# 111513
# 129463
# 142515
# 152873
#
# Disc length: 2252 seconds
# Revision: 0
# Processed by: cddbd v1.4PL0 Copyright (c) Steve Scherf et al.
# Submitted via: VisiTrax 2.9.5.180 - For more info visit www.synapsa.com
#
DISCID=8308ca0c
DTITLE=Anni and Countrysun - Show me the way to Nashville
DYEAR=1989
DGENRE=
TTITLE0=Long tall Sally's saloon
TTITLE1=One step closer
TTITLE2=Bridge across forever
TTITLE3=Leaving alone
TTITLE4=I know a heartache when I see one
TTITLE5=Show me the way to Nashville
TTITLE6=Behind the clouds
TTITLE7=Can I see you tonight
TTITLE8=Woman walk the line
TTITLE9=The answer to my dreams
TTITLE10=Silver threads and golden needles
TTITLE11=Sometimes-lately
EXTD=
EXTT0=
EXTT1=
EXTT2=
EXTT3=
EXTT4=
EXTT5=
EXTT6=
EXTT7=
EXTT8=
EXTT9=
EXTT10=
EXTT11=
PLAYORDER=
